<svg width="70" height="92" viewBox="0 0 70 92" fill="none" xmlns="http://www.w3.org/2000/svg">
<ellipse cx="34.7341" cy="72.443" rx="32.7263" ry="19.5569" fill="black" fill-opacity="0.1"/>
<rect x="17.9998" y="43" width="8.47241" height="32.5505" fill="#6A482F" stroke="#513927" stroke-width="2"/>
<rect x="43.5264" y="43" width="8.47241" height="32.5505" fill="#6A482F" stroke="#513927" stroke-width="2"/>
<path d="M35 5.49988C53.0571 5.49988 67.5 19.4628 67.5 36.451C67.4999 53.4392 53.057 67.4022 35 67.4022C16.943 67.4022 2.50013 53.4392 2.5 36.451C2.5 19.4628 16.9429 5.49988 35 5.49988Z" fill="#FF9B01" stroke="#DB8500" stroke-width="5"/>
<circle cx="47.0203" cy="35.0424" r="8.82061" fill="#DB8500"/>
<ellipse cx="47.7257" cy="35.7481" rx="7.40932" ry="7.40932" fill="#B87000"/>
<circle cx="22.2725" cy="35.0424" r="8.82061" fill="#DB8500"/>
<ellipse cx="22.9779" cy="35.7481" rx="7.40932" ry="7.40932" fill="#B87000"/>
<circle cx="34.6468" cy="50.8877" r="4.93954" fill="#DB8500"/>
<circle cx="35.0415" cy="51.2828" r="4.14922" fill="#B87000"/>
<path d="M35.618 6.25046L42.0224 7.79276L50.542 15.2279L58.5192 28.9122L59.7813 34.6445L54.2999 33.2428L40.3701 23.3123L30.3102 9.61417L35.618 6.25046Z" fill="#2A812D" stroke="#256C28" stroke-width="3"/>
</svg>
