<svg width="94" height="104" viewBox="0 0 94 104" fill="none" xmlns="http://www.w3.org/2000/svg">
<ellipse cx="46.7636" cy="84.275" rx="32.7128" ry="19.725" fill="black" fill-opacity="0.1"/>
<rect x="28.3413" y="51.2692" width="9.70518" height="36.9656" fill="#6A482F" stroke="#513927" stroke-width="2"/>
<rect x="56.873" y="51.2692" width="9.70518" height="36.9656" fill="#6A482F" stroke="#513927" stroke-width="2"/>
<path d="M47.46 9.72485C57.3353 9.72488 68.8537 11.0305 77.6143 15.9602C81.9494 18.3997 85.5667 21.702 88.0166 26.1545C90.3895 30.4674 91.7523 36.0132 91.4609 43.1838L91.4277 43.8831C90.7402 56.4276 84.6372 64.5125 76.3398 69.5618C67.9245 74.6827 57.1737 76.7072 47.46 76.7073C37.6114 76.7073 27.3522 75.4093 19.1016 70.6829C11.0277 66.0577 4.60478 57.9944 2.55566 43.7883C2.19503 36.3417 3.63341 30.6163 6.15527 26.1858C8.69142 21.7302 12.417 18.4194 16.8672 15.9719C25.8544 11.0292 37.5866 9.72485 47.46 9.72485Z" fill="#FF8E1C" stroke="#E97E13" stroke-width="5"/>
<circle cx="66.5684" cy="42.2793" r="13.8804" fill="#E97E13"/>
<ellipse cx="67.6786" cy="43.3899" rx="11.6595" ry="11.6595" fill="#4C3B20"/>
<circle cx="27.4263" cy="42.2793" r="13.8804" fill="#E97E13"/>
<ellipse cx="28.5365" cy="43.3897" rx="11.6595" ry="11.6595" fill="#4C3B20"/>
<circle cx="47.1918" cy="62.4107" r="5.13369" fill="#E97E13"/>
<ellipse cx="47.6028" cy="62.8215" rx="4.3123" ry="4.3123" fill="#4C3B20"/>
<path d="M53.6538 13.7127C53.6538 12.6432 54.3596 11.702 55.3864 11.4024L57.24 10.8616C57.5995 10.7567 57.9461 10.6116 58.2731 10.429L61.3757 8.6968L63.661 7.39867C64.1781 7.10497 64.7173 6.85213 65.2737 6.64243L65.4355 6.58145C66.8831 6.03592 68.4323 5.81279 69.975 5.92763L70.2722 5.94976C70.907 5.99701 71.534 6.11883 72.1403 6.31271L73.1906 6.64854C73.8241 6.85109 74.3949 7.21282 74.8486 7.69912L75.5804 8.48355C75.9419 8.87109 76.1029 9.40456 76.0162 9.92741L76.0056 9.99131C75.9306 10.4434 75.6615 10.84 75.269 11.0766C74.8233 11.3454 74.2731 11.3752 73.8009 11.1562L72.8253 10.7037L71.6517 10.2692C70.7595 9.93886 69.8037 9.81661 68.8572 9.91173C68.0489 9.99297 67.2641 10.231 66.5469 10.6126L65.3697 11.2389C62.978 12.9303 60.4332 14.4103 57.781 15.6542L56.8687 15.9795C55.3017 16.5383 53.6538 15.3764 53.6538 13.7127Z" fill="#885028"/>
<path d="M25.7499 0.199247C26.8606 0.333191 27.9436 0.639169 28.9602 1.1062L29.6479 1.42215C31.2614 2.16336 32.7366 3.1743 34.0101 4.41148L35.1806 5.54858C35.7754 6.12643 36.4677 6.59458 37.2255 6.93143L40.9372 8.58127C42.1121 9.10349 42.7042 10.4275 42.3102 11.6513C41.8841 12.9749 40.4651 13.7018 39.142 13.2744L38.2675 12.992C37.9644 12.894 37.6764 12.7544 37.4117 12.5771L34.6154 10.7036L30.4882 7.49255L27.6768 5.33201C26.5645 4.47725 25.2011 4.01386 23.7983 4.01386H23.0862C22.0209 4.01386 20.991 4.39629 20.1838 5.09156L19.8292 5.39701C19.0736 6.04789 18.6391 6.99568 18.6391 7.99297V8.95413C18.6391 9.61987 19.0039 10.2321 19.5894 10.5489C20.0818 10.8154 20.6697 10.8394 21.1822 10.6141L21.2826 10.5699C22.0224 10.2447 22.5 9.51291 22.5 8.70478V8.48089C22.5 7.86323 22.808 7.28623 23.3211 6.94244L23.4104 6.88263C23.8426 6.59306 24.3866 6.52589 24.8763 6.70164C25.5273 6.9353 25.9616 7.55253 25.9616 8.24422V9.27444C25.9616 9.77387 25.841 10.2659 25.6102 10.7088L24.8341 12.1978C24.6111 12.6255 24.3149 13.0108 23.9587 13.3362C23.355 13.8878 22.6008 14.2474 21.7921 14.3693L21.5652 14.4035C20.7802 14.5218 19.9781 14.4468 19.2287 14.1848L18.6321 13.9763C17.762 13.6721 16.9777 13.1632 16.3454 12.4925C15.419 11.5098 14.868 10.2324 14.7891 8.88414L14.765 8.47199C14.6867 7.13455 15.0003 5.80332 15.6673 4.64144L15.7644 4.47233C16.3417 3.46667 17.1432 2.60773 18.1066 1.9623L18.3453 1.80238C19.3298 1.14282 20.4377 0.689645 21.6022 0.470222L22.4623 0.308157C23.5461 0.103928 24.6549 0.0671975 25.7499 0.199247Z" fill="#885028"/>
<path d="M43.8017 7.2249L45.2474 3.73803C45.6023 2.88201 46.2618 2.18783 47.0985 1.78952C47.8929 1.41134 48.7951 1.32474 49.647 1.54488L52.3584 2.24556C52.7739 2.35292 53.1634 2.54304 53.5036 2.80451C54.5554 3.61276 54.9969 4.98766 54.6125 6.25714L54.3194 7.2249L53.8133 9.76794C53.7957 9.85631 53.7868 9.94618 53.7868 10.0363V10.9665C53.7868 11.4843 54.3066 11.8406 54.7895 11.654C55.1847 11.5012 55.627 11.7123 55.7568 12.1156L56.3921 14.089C56.7154 15.0932 56.147 16.1664 55.1346 16.4631C54.3357 16.6973 53.7868 17.4301 53.7868 18.2626V20.3726C53.7868 21.4612 52.9043 22.3438 51.8156 22.3438C51.4506 22.3438 51.0927 22.4452 50.7818 22.6366L49.8761 23.1945C48.1713 24.2446 46.0418 24.3279 44.2601 23.4144L43.7104 23.1325C41.8423 22.1747 40.7619 20.1608 40.9969 18.0747L41.256 15.7744C41.3451 14.9838 40.9172 14.2251 40.1945 13.8922C39.1568 13.4142 38.7986 12.1177 39.4436 11.1748L40.6473 9.41526C40.9267 9.00686 41.4695 8.87552 41.9047 9.11102C42.4167 9.38807 43.0556 9.15283 43.2657 8.60992L43.8017 7.2249Z" fill="#885028"/>
</svg>
