<svg width="170" height="200" viewBox="0 0 170 200" fill="none" xmlns="http://www.w3.org/2000/svg">
<rect x="38.9219" y="132.129" width="67.8708" height="67.8708" rx="33.9354" fill="black" fill-opacity="0.1"/>
<path d="M16.9639 45.6614L22.5869 46.4612L23.2627 46.5959C25.1725 46.9765 27.0306 47.5779 28.7998 48.387L29.5527 48.7463C30.5784 49.2572 31.5676 49.8379 32.5137 50.4836L32.916 50.7639L33.9365 51.4905C35.6581 52.7155 37.2442 54.119 38.6689 55.677L39.2705 56.3538L39.4629 56.5784C40.7489 58.0731 41.8702 59.701 42.8076 61.4338L43.1982 62.1829C44.23 64.2386 44.9992 66.4153 45.4893 68.6614L45.584 69.1116L46.4258 73.3069C46.9609 75.9718 48.2257 78.4321 50.0742 80.4153L50.4521 80.8049L50.9844 81.3362C52.8208 83.1656 55.1792 84.3728 57.7275 84.7981L58.2393 84.8733C59.7947 85.067 61.3717 84.965 62.8877 84.5745L63.1904 84.4924L64.2119 84.2024C65.6974 83.7796 67.2348 83.5647 68.7793 83.5647H72.252C73.9726 83.5647 75.686 83.7739 77.3545 84.1868L78.0664 84.3762L79.0244 84.6487C80.0281 84.9344 80.9953 85.3338 81.9072 85.8391L82.2949 86.0618L83.5518 86.8137C84.1901 87.1953 84.7565 87.685 85.2256 88.26L85.4199 88.511L88.3057 92.4309C90.2164 95.0273 88.3625 98.6936 85.1387 98.6936C83.818 98.6936 82.5919 98.0313 81.8662 96.9417L81.7275 96.718L80.7051 94.9348C80.1317 93.9352 79.361 93.0645 78.4424 92.3743L78.04 92.0891L77.6758 91.8479C75.8135 90.6111 73.604 90.013 71.3799 90.1379L70.9346 90.1731L62.1475 91.0481C59.8066 91.2813 57.4446 91.0088 55.2217 90.2502L54.7783 90.092C53.0967 89.4638 51.5307 88.5635 50.1416 87.429L49.8662 87.1995L49.6494 87.0149C47.7385 85.3831 46.1913 83.3707 45.1055 81.1086L44.8945 80.6526L44.5977 79.9866C43.8965 78.415 43.3888 76.7647 43.0859 75.0725L42.9688 74.345L42.5898 71.7034L42.4219 70.5286C42.0167 67.7029 41.1857 64.9557 39.958 62.3811L39.707 61.8684C38.429 59.3221 36.7728 56.9853 34.7969 54.9358L34.3975 54.5295L32.7979 52.9348C32.3493 52.488 31.877 52.0657 31.3838 51.6692L30.8838 51.2815C29.5419 50.2789 28.066 49.4707 26.501 48.8801L25.8242 48.6399L25.2158 48.4377C24.2729 48.1246 23.3095 47.8764 22.333 47.6946L21.9141 47.6213L18.7012 47.0872L18.6865 47.0852L18.6709 47.0833L10.9805 46.2766L10.9551 46.2747H5.71777C5.38421 46.209 5.38357 45.7286 5.71582 45.6614H16.9639Z" fill="#6A482F" stroke="#61422C"/>
<path d="M146.876 29.0566L146.88 29.0254L147.357 25.209C147.553 23.6449 147.853 22.0955 148.257 20.5723L148.437 19.9209L148.958 18.0957C149.176 17.3333 149.455 16.5899 149.793 15.873L149.941 15.5674C150.558 14.3344 151.345 13.1953 152.278 12.1836L152.688 11.7578L155.103 9.3418L155.122 9.32227L155.144 9.30566L159.184 6.07324L160.402 5.09863C162.276 3.59971 164.301 2.30073 166.443 1.2207L166.129 1.28418L166.119 1.28809L162.966 2.86426L158.96 5.26758L156.236 7.08301C155.027 7.88908 153.891 8.79849 152.839 9.7998L152.393 10.2344L152.068 10.5586C150.981 11.646 150.014 12.8469 149.184 14.1396L148.836 14.6992C148.25 15.6765 147.742 16.6985 147.317 17.7559L147.142 18.2109L145.431 22.7734L144.759 25.459C144.146 27.9098 143.837 30.4269 143.837 32.9531C143.837 34.4903 143.725 36.0253 143.504 37.5459L143.402 38.1973L142.969 40.7988C142.491 43.6626 141.557 46.4298 140.203 48.9951L139.927 49.5049L139.52 50.2383C138.686 51.7385 137.673 53.131 136.504 54.3848L135.993 54.9141L135.573 55.333C134.053 56.8537 132.273 58.0894 130.319 58.9824L129.927 59.1562C128.405 59.8085 126.801 60.2475 125.161 60.4619L124.456 60.54L121.646 60.7959C119.746 60.9687 117.863 61.2975 116.018 61.7783L115.229 61.9932L112.8 62.6865L109.843 63.7949C107.836 64.5475 105.903 65.4814 104.066 66.584L103.285 67.0664L98.6494 70.0166C98.0599 70.3918 97.5369 70.8612 97.1006 71.4053L96.9189 71.6436L94.9277 74.3809C93.3699 76.5229 94.3143 79.5334 96.7559 80.4336L96.9961 80.5146C98.0728 80.8377 99.2324 80.6874 100.188 80.1094L100.377 79.9883L113.967 70.6904L113.972 70.6865L114.581 70.29C117.443 68.4656 120.583 67.0392 123.844 66.0957L124.544 65.9004L126.217 65.4551C129.372 64.6135 132.337 63.1735 134.95 61.2139L135.037 61.1484C136.372 60.1472 137.602 59.0131 138.706 57.7637L139.172 57.2207C140.404 55.7423 141.457 54.1248 142.311 52.4023L142.665 51.6572L145.294 45.875L146.087 43.4922C146.611 41.391 146.876 39.2339 146.876 37.0684V29.0566Z" fill="#6A482F" stroke="#61422C"/>
<path d="M90.5439 56.2688C93.6523 54.0569 97.944 55.9766 98.4482 59.6711L98.4854 60.0344L98.5713 61.3127V87.1028C98.5713 94.5539 97.7123 101.979 96.0107 109.23L95.6592 110.677L95.459 111.475C94.4016 115.688 93.0288 119.816 91.3525 123.823L91.0127 124.622L89.0918 129.087C87.453 132.897 86.2834 136.89 85.6074 140.98L85.4785 141.799L83.7783 153.236C83.3986 155.789 83.747 158.394 84.7793 160.752L84.9951 161.221C88.7545 168.999 83.0876 178.032 74.4482 178.032H69.8799C65.656 178.032 61.715 175.945 59.3389 172.474L59.1133 172.134C58.1943 170.695 57.5741 169.088 57.2871 167.407L57.2334 167.07L56.7461 163.667C56.3214 160.706 56.363 157.697 56.8682 154.751L56.9756 154.162L57.9893 148.908C59.2628 142.311 61.6258 135.975 64.9785 130.159L65.6631 129.003L77.3525 109.728C81.1763 103.423 84.0267 96.5793 85.8096 89.4299L86.1523 87.9963C87.0644 83.9983 87.6395 79.9313 87.8721 75.8381L87.9141 75.0188L88.4277 63.7551L88.4287 63.7327V60.3704C88.4287 58.8433 89.1216 57.4044 90.3018 56.4524L90.5439 56.2688Z" fill="#6A482F" stroke="#61422C" stroke-width="2"/>
</svg>
